<svg version="1.1" xmlns="http://www.w3.org/2000/svg" width="163px" height="36px" viewBox="0 0 163 36">
<g fill="#ffc600"><path d="M13.873,1.142c4.728,0,8.682,1.639,11.862,4.916c3.18,3.278,4.77,7.346,4.77,12.204c0,4.859-1.59,8.927-4.77,12.205 s-7.134,4.916-11.862,4.916H0.177V1.142H13.873z M13.873,27.85c2.706,0,4.899-0.872,6.579-2.617c1.679-1.744,2.52-4.067,2.52-6.97 c0-2.901-0.84-5.225-2.52-6.97c-1.68-1.744-3.873-2.617-6.579-2.617h-5.87V27.85H13.873z"/><path d="M42.733,27.85H56.43v7.533H34.907V1.142h21.278v7.533H42.733v5.675h12.229v7.434H42.733V27.85z"/><path d="M69.049,35.383L57.897,1.142h8.56l7.582,25.191L81.62,1.142h8.56l-11.153,34.24H69.049z"/><path d="M93.115,1.142h7.826v34.24h-7.826V1.142z"/><path d="M123.149,36.067c-5.12,0-9.367-1.704-12.743-5.112c-3.375-3.407-5.062-7.638-5.062-12.693 c0-5.054,1.688-9.285,5.062-12.693c3.376-3.407,7.623-5.112,12.743-5.112c3.064,0,5.902,0.71,8.511,2.128 c2.609,1.418,4.663,3.35,6.163,5.796l-6.75,3.913c-0.751-1.337-1.826-2.373-3.228-3.106c-1.403-0.734-2.968-1.1-4.696-1.1 c-3.033,0-5.454,0.929-7.264,2.788c-1.81,1.858-2.715,4.321-2.715,7.385c0,3.066,0.905,5.527,2.715,7.387 c1.81,1.858,4.231,2.788,7.264,2.788c1.728,0,3.302-0.375,4.72-1.125c1.419-0.749,2.487-1.777,3.204-3.082l6.75,3.914 c-1.468,2.445-3.506,4.378-6.114,5.796C129.099,35.358,126.247,36.067,123.149,36.067z"/><path d="M149.317,27.85h13.696v7.533h-21.522V1.142h21.278v7.533h-13.452v5.675h12.229v7.434h-12.229V27.85z"/></g>
</svg>
